<?xml version="1.0" encoding="UTF-8" standalone="no"?>
<!-- Generator: Adobe Illustrator 16.0.0, SVG Export Plug-In . SVG Version: 6.00 Build 0)  -->

<svg
   xmlns:dc="http://purl.org/dc/elements/1.1/"
   xmlns:cc="http://creativecommons.org/ns#"
   xmlns:rdf="http://www.w3.org/1999/02/22-rdf-syntax-ns#"
   xmlns:svg="http://www.w3.org/2000/svg"
   xmlns="http://www.w3.org/2000/svg"
   xmlns:sodipodi="http://sodipodi.sourceforge.net/DTD/sodipodi-0.dtd"
   xmlns:inkscape="http://www.inkscape.org/namespaces/inkscape"
   version="1.1"
   id="Capa_1"
   x="0px"
   y="0px"
   width="50"
   height="50"
   viewBox="0 0 50 50"
   xml:space="preserve"
   inkscape:version="0.91 r13725"
   sodipodi:docname="facebook.svg"><metadata
     id="metadata83"><rdf:RDF><cc:Work
         rdf:about=""><dc:format>image/svg+xml</dc:format><dc:type
           rdf:resource="http://purl.org/dc/dcmitype/StillImage" /><dc:title></dc:title></cc:Work></rdf:RDF></metadata><defs
     id="defs81" /><sodipodi:namedview
     pagecolor="#ffffff"
     bordercolor="#666666"
     borderopacity="1"
     objecttolerance="10"
     gridtolerance="10"
     guidetolerance="10"
     inkscape:pageopacity="0"
     inkscape:pageshadow="2"
     inkscape:window-width="1301"
     inkscape:window-height="744"
     id="namedview79"
     showgrid="false"
     inkscape:zoom="0.4627451"
     inkscape:cx="255"
     inkscape:cy="255"
     inkscape:window-x="65"
     inkscape:window-y="24"
     inkscape:window-maximized="1"
     inkscape:current-layer="Capa_1" /><g
     id="g44"
     style="fill:#ffffff"
     transform="scale(0.09803922,0.09803922)"><g
       id="post-facebook"
       style="fill:#ffffff"><path
         d="M 459,0 51,0 C 22.95,0 0,22.95 0,51 l 0,408 c 0,28.05 22.95,51 51,51 l 408,0 c 28.05,0 51,-22.95 51,-51 L 510,51 C 510,22.95 487.05,0 459,0 Z m -25.5,51 0,76.5 -51,0 c -15.3,0 -25.5,10.2 -25.5,25.5 l 0,51 76.5,0 0,76.5 -76.5,0 0,178.5 -76.5,0 0,-178.5 -51,0 0,-76.5 51,0 0,-63.75 C 280.5,91.8 321.3,51 369.75,51 l 63.75,0 z"
         id="path47"
         style="fill:#ffffff"
         inkscape:connector-curvature="0" /></g></g><g
     id="g49"
     transform="translate(0,-460)" /><g
     id="g51"
     transform="translate(0,-460)" /><g
     id="g53"
     transform="translate(0,-460)" /><g
     id="g55"
     transform="translate(0,-460)" /><g
     id="g57"
     transform="translate(0,-460)" /><g
     id="g59"
     transform="translate(0,-460)" /><g
     id="g61"
     transform="translate(0,-460)" /><g
     id="g63"
     transform="translate(0,-460)" /><g
     id="g65"
     transform="translate(0,-460)" /><g
     id="g67"
     transform="translate(0,-460)" /><g
     id="g69"
     transform="translate(0,-460)" /><g
     id="g71"
     transform="translate(0,-460)" /><g
     id="g73"
     transform="translate(0,-460)" /><g
     id="g75"
     transform="translate(0,-460)" /><g
     id="g77"
     transform="translate(0,-460)" /></svg>