<?xml version="1.0" encoding="UTF-8" standalone="no"?>
<!-- Generator: Adobe Illustrator 16.0.0, SVG Export Plug-In . SVG Version: 6.00 Build 0)  -->

<svg
   xmlns:dc="http://purl.org/dc/elements/1.1/"
   xmlns:cc="http://creativecommons.org/ns#"
   xmlns:rdf="http://www.w3.org/1999/02/22-rdf-syntax-ns#"
   xmlns:svg="http://www.w3.org/2000/svg"
   xmlns="http://www.w3.org/2000/svg"
   xmlns:sodipodi="http://sodipodi.sourceforge.net/DTD/sodipodi-0.dtd"
   xmlns:inkscape="http://www.inkscape.org/namespaces/inkscape"
   version="1.1"
   id="Capa_1"
   x="0px"
   y="0px"
   width="50"
   height="50"
   viewBox="0 0 50 50"
   xml:space="preserve"
   inkscape:version="0.91 r13725"
   sodipodi:docname="instagram.svg"><metadata
     id="metadata209"><rdf:RDF><cc:Work
         rdf:about=""><dc:format>image/svg+xml</dc:format><dc:type
           rdf:resource="http://purl.org/dc/dcmitype/StillImage" /><dc:title></dc:title></cc:Work></rdf:RDF></metadata><defs
     id="defs207" /><sodipodi:namedview
     pagecolor="#ffffff"
     bordercolor="#666666"
     borderopacity="1"
     objecttolerance="10"
     gridtolerance="10"
     guidetolerance="10"
     inkscape:pageopacity="0"
     inkscape:pageshadow="2"
     inkscape:window-width="1301"
     inkscape:window-height="744"
     id="namedview205"
     showgrid="false"
     inkscape:zoom="0.4627451"
     inkscape:cx="255"
     inkscape:cy="255"
     inkscape:window-x="65"
     inkscape:window-y="24"
     inkscape:window-maximized="1"
     inkscape:current-layer="Capa_1" /><g
     id="g170"
     style="fill:#ffffff"
     transform="scale(0.09803922,0.09803922)"><g
       id="post-instagram"
       style="fill:#ffffff"><path
         d="M 459,0 51,0 C 22.95,0 0,22.95 0,51 l 0,408 c 0,28.05 22.95,51 51,51 l 408,0 c 28.05,0 51,-22.95 51,-51 L 510,51 C 510,22.95 487.05,0 459,0 Z M 255,153 c 56.1,0 102,45.9 102,102 0,56.1 -45.9,102 -102,102 -56.1,0 -102,-45.9 -102,-102 0,-56.1 45.9,-102 102,-102 z M 63.75,459 C 56.1,459 51,453.9 51,446.25 l 0,-216.75 53.55,0 C 102,237.15 102,247.35 102,255 c 0,84.15 68.85,153 153,153 84.15,0 153,-68.85 153,-153 0,-7.65 0,-17.85 -2.55,-25.5 l 53.55,0 0,216.75 c 0,7.65 -5.1,12.75 -12.75,12.75 l -382.5,0 z M 459,114.75 c 0,7.65 -5.1,12.75 -12.75,12.75 l -51,0 c -7.65,0 -12.75,-5.1 -12.75,-12.75 l 0,-51 C 382.5,56.1 387.6,51 395.25,51 l 51,0 C 453.9,51 459,56.1 459,63.75 l 0,51 z"
         id="path173"
         style="fill:#ffffff"
         inkscape:connector-curvature="0" /></g></g><g
     id="g175"
     transform="translate(0,-460)" /><g
     id="g177"
     transform="translate(0,-460)" /><g
     id="g179"
     transform="translate(0,-460)" /><g
     id="g181"
     transform="translate(0,-460)" /><g
     id="g183"
     transform="translate(0,-460)" /><g
     id="g185"
     transform="translate(0,-460)" /><g
     id="g187"
     transform="translate(0,-460)" /><g
     id="g189"
     transform="translate(0,-460)" /><g
     id="g191"
     transform="translate(0,-460)" /><g
     id="g193"
     transform="translate(0,-460)" /><g
     id="g195"
     transform="translate(0,-460)" /><g
     id="g197"
     transform="translate(0,-460)" /><g
     id="g199"
     transform="translate(0,-460)" /><g
     id="g201"
     transform="translate(0,-460)" /><g
     id="g203"
     transform="translate(0,-460)" /></svg>