<?xml version="1.0" encoding="UTF-8" standalone="no"?>
<!-- Generator: Adobe Illustrator 16.0.0, SVG Export Plug-In . SVG Version: 6.00 Build 0)  -->

<svg
   xmlns:dc="http://purl.org/dc/elements/1.1/"
   xmlns:cc="http://creativecommons.org/ns#"
   xmlns:rdf="http://www.w3.org/1999/02/22-rdf-syntax-ns#"
   xmlns:svg="http://www.w3.org/2000/svg"
   xmlns="http://www.w3.org/2000/svg"
   xmlns:sodipodi="http://sodipodi.sourceforge.net/DTD/sodipodi-0.dtd"
   xmlns:inkscape="http://www.inkscape.org/namespaces/inkscape"
   version="1.1"
   id="Capa_1"
   x="0px"
   y="0px"
   width="50"
   height="50"
   viewBox="0 0 50 50"
   xml:space="preserve"
   inkscape:version="0.91 r13725"
   sodipodi:docname="pinterest.svg"><metadata
     id="metadata42"><rdf:RDF><cc:Work
         rdf:about=""><dc:format>image/svg+xml</dc:format><dc:type
           rdf:resource="http://purl.org/dc/dcmitype/StillImage" /><dc:title></dc:title></cc:Work></rdf:RDF></metadata><defs
     id="defs40" /><sodipodi:namedview
     pagecolor="#ffffff"
     bordercolor="#666666"
     borderopacity="1"
     objecttolerance="10"
     gridtolerance="10"
     guidetolerance="10"
     inkscape:pageopacity="0"
     inkscape:pageshadow="2"
     inkscape:window-width="1301"
     inkscape:window-height="744"
     id="namedview38"
     showgrid="false"
     inkscape:zoom="0.4627451"
     inkscape:cx="255"
     inkscape:cy="255"
     inkscape:window-x="65"
     inkscape:window-y="24"
     inkscape:window-maximized="1"
     inkscape:current-layer="Capa_1" /><g
     id="g3"
     transform="scale(0.09803922,0.09803922)"
     style="fill:#ffffff"><g
       id="post-pinterest"
       style="fill:#ffffff"><path
         d="M 459,0 51,0 C 22.95,0 0,22.95 0,51 l 0,408 c 0,28.05 22.95,51 51,51 l 408,0 c 28.05,0 51,-22.95 51,-51 L 510,51 C 510,22.95 487.05,0 459,0 Z M 280.5,362.1 c -20.4,0 -40.8,-7.649 -53.55,-22.949 l -25.5,81.6 -2.55,5.1 0,0 c -5.1,7.65 -12.75,12.75 -22.95,12.75 -15.3,0 -28.05,-12.75 -28.05,-28.05 0,-2.55 0,-2.55 0,-2.55 l 0,0 2.55,-5.1 45.9,-142.801 c 0,0 -5.1,-15.3 -5.1,-38.25 0,-43.35 22.95,-56.1 43.35,-56.1 17.85,0 35.7,7.65 35.7,33.15 0,33.15 -22.95,51 -22.95,76.5 0,17.85 15.3,33.149 33.15,33.149 58.65,0 81.6,-45.899 81.6,-86.7 0,-56.1 -48.449,-102 -107.1,-102 -58.65,0 -107.1,45.9 -107.1,102 0,17.85 5.1,33.15 12.75,48.45 2.55,5.101 2.55,7.65 2.55,12.75 0,15.3 -10.2,25.5 -25.5,25.5 -10.2,0 -17.85,-5.1 -22.95,-12.75 -12.75,-22.95 -20.4,-48.45 -20.4,-76.5 0,-84.15 71.4,-153 158.1,-153 86.7,0 158.1,68.85 158.1,153 C 413.1,290.7 372.3,362.1 280.5,362.1 Z"
         id="path6"
         inkscape:connector-curvature="0"
         style="fill:#ffffff" /></g></g><g
     id="g8"
     transform="translate(0,-460)" /><g
     id="g10"
     transform="translate(0,-460)" /><g
     id="g12"
     transform="translate(0,-460)" /><g
     id="g14"
     transform="translate(0,-460)" /><g
     id="g16"
     transform="translate(0,-460)" /><g
     id="g18"
     transform="translate(0,-460)" /><g
     id="g20"
     transform="translate(0,-460)" /><g
     id="g22"
     transform="translate(0,-460)" /><g
     id="g24"
     transform="translate(0,-460)" /><g
     id="g26"
     transform="translate(0,-460)" /><g
     id="g28"
     transform="translate(0,-460)" /><g
     id="g30"
     transform="translate(0,-460)" /><g
     id="g32"
     transform="translate(0,-460)" /><g
     id="g34"
     transform="translate(0,-460)" /><g
     id="g36"
     transform="translate(0,-460)" /></svg>